<?xml version="1.0" standalone="no"?>
<!DOCTYPE svg PUBLIC "-//W3C//DTD SVG 20010904//EN"
 "http://www.w3.org/TR/2001/REC-SVG-20010904/DTD/svg10.dtd">
<svg version="1.0" xmlns="http://www.w3.org/2000/svg"
 width="512.000000pt" height="512.000000pt" viewBox="0 0 512.000000 512.000000"
 preserveAspectRatio="xMidYMid meet">
<metadata>
Created by potrace 1.14, written by Peter Selinger 2001-2017
</metadata>
<g transform="translate(0.000000,512.000000) scale(0.100000,-0.100000)"
fill="#000000" stroke="none">
<path d="M4530 5112 c-8 -3 -28 -15 -43 -28 -28 -24 -28 -24 -49 -4 -32 29
-83 26 -113 -6 -30 -33 -32 -67 -5 -105 l21 -28 -43 -44 -43 -44 -24 23 c-17
16 -33 21 -58 19 -67 -6 -93 -59 -61 -124 l20 -42 -39 -38 -39 -39 -25 19
c-44 34 -101 24 -125 -23 -19 -36 -13 -66 20 -105 l24 -29 -59 -119 c-66 -134
-17 -81 -520 -566 -327 -316 -420 -404 -429 -407 -5 -2 -35 15 -67 37 -334
227 -663 240 -947 37 -124 -88 -189 -175 -262 -350 -70 -167 -111 -241 -169
-300 -67 -70 -131 -102 -245 -123 -13 -2 -60 -13 -105 -23 -45 -10 -92 -21
-106 -23 -123 -23 -309 -86 -435 -149 -264 -131 -502 -433 -579 -734 -23 -88
-27 -275 -9 -375 41 -218 158 -455 331 -669 60 -75 251 -273 328 -341 239
-211 534 -364 760 -397 64 -9 248 -8 300 1 262 45 555 236 716 467 102 144
194 371 224 550 3 19 15 72 25 118 11 46 22 98 25 115 19 113 73 199 173 279
31 25 121 69 242 119 201 82 325 190 414 359 68 129 86 207 82 355 -3 96 -9
136 -30 199 -35 104 -86 210 -142 292 -25 36 -44 70 -42 74 2 7 232 249 408
430 25 26 134 139 243 252 l198 206 122 60 121 60 38 -30 c31 -26 42 -29 72
-24 62 12 86 80 47 135 l-19 27 43 42 c28 27 46 38 51 31 3 -6 20 -17 37 -24
77 -32 149 62 94 123 -24 26 -22 32 23 75 l41 38 30 -22 c38 -27 92 -20 115
17 20 30 13 93 -13 111 -15 12 -14 15 13 44 28 29 29 33 28 127 -1 74 -6 110
-23 153 -61 158 -207 292 -362 332 -55 14 -170 19 -199 9z m167 -171 c124 -35
243 -174 256 -302 l5 -44 -236 -238 -237 -238 -118 -59 c-65 -33 -122 -60
-127 -60 -9 0 -240 229 -240 239 0 3 27 60 60 126 l60 121 238 236 c261 261
239 246 339 219z m-730 -912 c37 -37 83 -83 102 -103 l34 -35 -85 -88 c-48
-49 -108 -110 -134 -138 -26 -27 -143 -149 -259 -270 -117 -121 -234 -242
-260 -270 -26 -27 -141 -147 -255 -265 -115 -118 -244 -253 -289 -300 -44 -46
-82 -82 -84 -80 -2 3 -20 30 -40 60 -20 30 -44 64 -54 75 -26 29 -103 88 -135
105 -16 7 -28 16 -28 20 0 3 53 56 118 117 64 62 158 151 208 200 177 171 517
499 574 553 93 88 482 464 494 477 15 17 16 16 93 -58z m-1517 -564 c48 -8
126 -33 180 -57 57 -26 180 -101 180 -109 0 -5 -298 -297 -500 -490 -21 -20
-39 -26 -77 -27 -215 -8 -418 -168 -477 -375 -95 -332 141 -658 485 -671 283
-11 527 213 540 496 2 43 8 58 33 84 17 17 126 129 241 249 116 120 216 224
223 232 7 7 17 13 20 13 10 0 85 -124 110 -180 62 -141 78 -256 55 -383 -12
-65 -63 -182 -100 -228 -87 -108 -143 -147 -316 -218 -177 -73 -234 -108 -319
-192 -77 -78 -112 -132 -141 -224 -13 -40 -67 -274 -93 -405 -12 -58 -66 -204
-103 -277 -116 -231 -334 -419 -579 -499 -80 -27 -99 -29 -232 -29 -128 1
-155 4 -232 28 -241 74 -466 224 -715 478 -250 255 -398 499 -448 743 -21 101
-19 249 5 341 66 258 270 506 515 628 69 34 194 82 238 91 476 99 550 126 667
245 81 82 128 161 195 326 52 131 90 193 155 255 135 130 310 185 490 155z
m-72 -869 c89 -32 161 -96 201 -179 28 -57 33 -78 35 -152 5 -128 -56 -239
-169 -310 -68 -43 -114 -54 -204 -52 -265 8 -422 291 -294 532 24 47 95 115
144 141 82 42 202 51 287 20z"/>
<path d="M821 1714 c-12 -15 -21 -41 -21 -58 0 -27 47 -77 413 -444 l414 -413
39 3 c30 2 43 10 60 35 14 21 20 41 16 59 -3 18 -130 152 -414 435 -399 399
-409 409 -447 409 -31 0 -44 -6 -60 -26z"/>
</g>
</svg>
